# xmcd
#
# Track frame offsets:
#	150
#	17818
#	32573
#	47334
#	65165
#	94648
#	115825
#	133826
#	146580
#	161807
#
# Disc length: 2616 seconds
#
# Revision: 1
# Processed by: cddbd v1.4PL0 Copyright (c) Steve Scherf et al.
# Submitted via: EasyCDDAExtractor 5.0.6
#
DISCID=870a360a
DTITLE=Don Francisco - Got To Tell Somebody
DYEAR=1900
DGENRE=Country
TTITLE0=If You're Thirsty
TTITLE1=Whenever You're Speakin' To Me
TTITLE2=The Duke And The Duchess
TTITLE3=Steeple Song
TTITLE4=Got To Tell Somebody
TTITLE5=Who Do You Think You're Foolin'?
TTITLE6=I'll Never Let Go Of Your Hand
TTITLE7=Balaam
TTITLE8=He Still Loves You
TTITLE9=Too Small A Price
EXTD=
EXTT0=
EXTT1=
EXTT2=
EXTT3=
EXTT4=
EXTT5=
EXTT6=
EXTT7=
EXTT8=
EXTT9=
PLAYORDER=
